<svg width="30" height="20" viewBox="0 0 30 20" fill="none" xmlns="http://www.w3.org/2000/svg">
<mask id="mask0_33_65" style="mask-type:luminance" maskUnits="userSpaceOnUse" x="0" y="0" width="30" height="20">
<path d="M0 0H29.7889V19.8668H0V0Z" fill="white"/>
</mask>
<g mask="url(#mask0_33_65)">
<path d="M26.9962 19.8627H2.79307C1.25274 19.8627 0.000488281 18.6104 0.000488281 17.0702V2.79624C0.000488281 1.25592 1.2528 0.00366211 2.79307 0.00366211H26.9962C28.5365 0.00366211 29.7888 1.25598 29.7888 2.79624V17.0702C29.7888 18.6105 28.5365 19.8627 26.9962 19.8627ZM2.79307 1.86499C2.27917 1.86499 1.86229 2.28211 1.86229 2.79577V17.0697C1.86229 17.5836 2.27941 18.0005 2.79307 18.0005H26.9962C27.5101 18.0005 27.927 17.5833 27.927 17.0697V2.79577C27.927 2.28187 27.5099 1.86499 26.9962 1.86499H2.79307Z" fill="#C6C6C6"/>
</g>
<mask id="mask1_33_65" style="mask-type:luminance" maskUnits="userSpaceOnUse" x="0" y="3" width="30" height="10">
<path d="M0 3.54761H29.7889V12.4167H0V3.54761Z" fill="white"/>
</mask>
<g mask="url(#mask1_33_65)">
<path d="M14.8935 12.4107C14.3498 12.4107 13.8075 12.2827 13.3134 12.027L0.50055 5.33322C0.0450868 5.09625 -0.131166 4.53383 0.105828 4.07837C0.344181 3.6229 0.907711 3.44665 1.36181 3.68481L14.1711 10.3751C14.6155 10.6046 15.174 10.6046 15.6221 10.3725L28.4272 3.68463C28.8827 3.44512 29.4451 3.6225 29.6832 4.07819C29.9216 4.53366 29.7454 5.09607 29.2897 5.33417L16.4803 12.0244C15.9814 12.2813 15.4377 12.4104 14.8929 12.4104L14.8935 12.4107Z" fill="#C6C6C6"/>
</g>
</svg>
