<svg width="25" height="27" viewBox="0 0 25 27" fill="none" xmlns="http://www.w3.org/2000/svg">
<path d="M12.0307 26.2122C4.05771 26.2122 0.467389 24.9428 0.318779 24.889C0.127362 24.8197 0 24.6376 0 24.4339V13.8442C0 13.6553 0.109843 13.4836 0.280994 13.4046C0.399349 13.35 3.28284 12.0659 12.1287 12.0659C20.9755 12.0659 23.8586 13.35 23.9771 13.4046C24.1485 13.4836 24.2581 13.6553 24.2581 13.8442L24.2584 24.4339C24.2584 24.6366 24.1318 24.8177 23.9421 24.888C23.7982 24.9413 20.3187 26.1919 12.2167 26.2122L12.0307 26.2122ZM0.968305 24.0776C1.99992 24.3758 5.56033 25.2436 12.0314 25.2436H12.2143C18.7755 25.2271 22.2742 24.3741 23.2908 24.0788L23.2906 14.1803C22.3908 13.881 19.2173 13.034 12.1288 13.034C5.04428 13.034 1.87095 13.8802 0.967766 14.1803V24.0775L0.968305 24.0776Z" fill="#C6C6C6"/>
<path d="M3.89636 12.8963C3.78076 12.8964 3.66813 12.8552 3.57974 12.7787C3.47359 12.6867 3.41218 12.5532 3.41207 12.4125L3.40927 8.64573C3.40572 3.88563 7.27545 0.0100534 12.0356 0.00650584C16.7958 0.00295831 20.6713 3.87269 20.6749 8.63286L20.6757 9.80585C20.6758 9.94622 20.5407 12.7661 20.5407 12.7661C20.1329 12.7498 20.1329 12.7664 19.7094 12.7667C18.8938 12.7673 18.5942 12.6696 17.6859 12.5975C17.4356 12.5777 17.2796 12.3663 17.2777 12.1154L17.2757 9.38244L17.2751 8.63636C17.0769 5.28497 14.3283 3.55511 12.0385 3.55682C9.23582 3.5589 6.95726 5.84061 6.95935 8.64356L6.96195 12.1231C6.96213 12.375 6.76862 12.5851 6.51767 12.6058C5.60596 12.6811 4.74774 12.7773 3.96641 12.8915C3.94314 12.8942 3.91963 12.8963 3.89636 12.8963ZM12.036 0.974619C7.80961 0.977769 4.37366 4.41859 4.37681 8.64524L4.3792 11.8571C4.8916 11.7906 5.43155 11.7312 5.9927 11.6797L5.99044 8.6443C5.98795 5.30764 8.70029 2.59125 12.037 2.58876C14.7736 2.58672 17.1796 4.43153 17.8869 7.07529C18.0902 7.85749 18.088 8.65461 18.0908 8.67312L18.088 11.6707C18.649 11.7203 19.194 11.7805 19.7087 11.8456L19.7063 8.63455C19.7027 4.40738 16.2621 0.97147 12.036 0.974619Z" fill="#C6C6C6"/>
</svg>
