<svg xmlns="http://www.w3.org/2000/svg" xmlns:xlink="http://www.w3.org/1999/xlink" width="400" zoomAndPan="magnify" viewBox="0 0 300 74.999997" height="100" preserveAspectRatio="xMidYMid meet" version="1.0"><defs><g/><clipPath id="918b8c2a08"><rect x="0" width="300" y="0" height="75"/></clipPath></defs><g transform="matrix(1, 0, 0, 1, 0, -0.000000000000001893)"><g clip-path="url(#918b8c2a08)"><g fill="#ffffff" fill-opacity="1"><g transform="translate(-1.033709, 63.712502)"><g><path d="M 23.5 -38.53125 C 20.8125 -35.84375 19.46875 -32.597656 19.46875 -28.796875 C 19.46875 -24.992188 20.8125 -21.742188 23.5 -19.046875 C 26.195312 -16.359375 29.445312 -15.015625 33.25 -15.015625 C 37.050781 -15.015625 40.296875 -16.359375 42.984375 -19.046875 C 45.671875 -21.742188 47.015625 -24.992188 47.015625 -28.796875 C 47.015625 -32.597656 45.671875 -35.84375 42.984375 -38.53125 C 40.296875 -41.21875 37.050781 -42.5625 33.25 -42.5625 C 29.445312 -42.5625 26.195312 -41.21875 23.5 -38.53125 Z M 18.25 -22.46875 C 17.394531 -24.476562 16.96875 -26.582031 16.96875 -28.78125 C 16.96875 -30.988281 17.394531 -33.09375 18.25 -35.09375 C 19.113281 -37.101562 20.273438 -38.835938 21.734375 -40.296875 C 23.191406 -41.765625 24.921875 -42.925781 26.921875 -43.78125 C 28.929688 -44.632812 31.035156 -45.0625 33.234375 -45.0625 C 35.441406 -45.0625 37.546875 -44.632812 39.546875 -43.78125 C 41.554688 -42.925781 43.289062 -41.765625 44.75 -40.296875 C 46.21875 -38.835938 47.378906 -37.101562 48.234375 -35.09375 C 49.085938 -33.09375 49.515625 -30.988281 49.515625 -28.78125 C 49.515625 -26.582031 49.085938 -24.476562 48.234375 -22.46875 C 47.378906 -20.46875 46.21875 -18.738281 44.75 -17.28125 C 43.289062 -15.820312 41.554688 -14.660156 39.546875 -13.796875 C 37.546875 -12.941406 35.441406 -12.515625 33.234375 -12.515625 C 31.035156 -12.515625 28.929688 -12.941406 26.921875 -13.796875 C 24.921875 -14.660156 23.191406 -15.820312 21.734375 -17.28125 C 20.273438 -18.738281 19.113281 -20.46875 18.25 -22.46875 Z M 16.984375 -38.21875 C 15.304688 -35.34375 14.46875 -32.203125 14.46875 -28.796875 C 14.46875 -25.390625 15.304688 -22.25 16.984375 -19.375 C 18.671875 -16.5 20.945312 -14.21875 23.8125 -12.53125 C 26.6875 -10.851562 29.828125 -10.015625 33.234375 -10.015625 C 36.648438 -10.015625 39.796875 -10.851562 42.671875 -12.53125 C 45.546875 -14.21875 47.820312 -16.5 49.5 -19.375 C 51.175781 -22.25 52.015625 -25.390625 52.015625 -28.796875 C 52.015625 -32.203125 51.175781 -35.34375 49.5 -38.21875 C 47.820312 -41.09375 45.546875 -43.367188 42.671875 -45.046875 C 39.796875 -46.734375 36.648438 -47.578125 33.234375 -47.578125 C 29.828125 -47.578125 26.6875 -46.734375 23.8125 -45.046875 C 20.945312 -43.367188 18.671875 -41.09375 16.984375 -38.21875 Z M 14.8125 -18.109375 C 12.914062 -21.378906 11.96875 -24.9375 11.96875 -28.78125 C 11.96875 -32.632812 12.914062 -36.195312 14.8125 -39.46875 C 16.71875 -42.738281 19.300781 -45.320312 22.5625 -47.21875 C 25.832031 -49.125 29.390625 -50.078125 33.234375 -50.078125 C 37.085938 -50.078125 40.648438 -49.125 43.921875 -47.21875 C 47.191406 -45.320312 49.773438 -42.738281 51.671875 -39.46875 C 53.578125 -36.195312 54.53125 -32.632812 54.53125 -28.78125 C 54.53125 -24.9375 53.578125 -21.378906 51.671875 -18.109375 C 49.773438 -14.847656 47.191406 -12.265625 43.921875 -10.359375 C 40.648438 -8.460938 37.085938 -7.515625 33.234375 -7.515625 C 29.390625 -7.515625 25.832031 -8.460938 22.5625 -10.359375 C 19.300781 -12.265625 16.71875 -14.847656 14.8125 -18.109375 Z M 11.328125 -38.03125 C 10.078125 -35.09375 9.453125 -32.007812 9.453125 -28.78125 C 9.453125 -25.5625 10.078125 -22.476562 11.328125 -19.53125 C 12.585938 -16.59375 14.273438 -14.0625 16.390625 -11.9375 C 18.515625 -9.820312 21.046875 -8.132812 23.984375 -6.875 C 26.929688 -5.625 30.015625 -5 33.234375 -5 C 36.460938 -5 39.546875 -5.625 42.484375 -6.875 C 45.429688 -8.132812 47.96875 -9.820312 50.09375 -11.9375 C 52.21875 -14.0625 53.90625 -16.59375 55.15625 -19.53125 C 56.40625 -22.476562 57.03125 -25.5625 57.03125 -28.78125 C 57.03125 -32.007812 56.40625 -35.09375 55.15625 -38.03125 C 53.90625 -40.976562 52.21875 -43.515625 50.09375 -45.640625 C 47.96875 -47.765625 45.429688 -49.453125 42.484375 -50.703125 C 39.546875 -51.953125 36.460938 -52.578125 33.234375 -52.578125 C 30.015625 -52.578125 26.929688 -51.953125 23.984375 -50.703125 C 21.046875 -49.453125 18.515625 -47.765625 16.390625 -45.640625 C 14.273438 -43.515625 12.585938 -40.976562 11.328125 -38.03125 Z M 10.484375 -15.609375 C 8.128906 -19.648438 6.953125 -24.046875 6.953125 -28.796875 C 6.953125 -33.546875 8.128906 -37.9375 10.484375 -41.96875 C 12.835938 -46.007812 16.03125 -49.203125 20.0625 -51.546875 C 24.09375 -53.898438 28.484375 -55.078125 33.234375 -55.078125 C 37.992188 -55.078125 42.390625 -53.898438 46.421875 -51.546875 C 50.453125 -49.203125 53.644531 -46.007812 56 -41.96875 C 58.351562 -37.9375 59.53125 -33.546875 59.53125 -28.796875 C 59.53125 -24.046875 58.351562 -19.648438 56 -15.609375 C 53.644531 -11.578125 50.453125 -8.382812 46.421875 -6.03125 C 42.390625 -3.675781 37.992188 -2.5 33.234375 -2.5 C 28.484375 -2.5 24.09375 -3.675781 20.0625 -6.03125 C 16.03125 -8.382812 12.835938 -11.578125 10.484375 -15.609375 Z M 6.71875 -39.96875 C 5.207031 -36.414062 4.453125 -32.691406 4.453125 -28.796875 C 4.453125 -24.898438 5.207031 -21.171875 6.71875 -17.609375 C 8.238281 -14.054688 10.285156 -10.992188 12.859375 -8.421875 C 15.441406 -5.847656 18.507812 -3.800781 22.0625 -2.28125 C 25.625 -0.757812 29.351562 0 33.25 0 C 37.144531 0 40.867188 -0.757812 44.421875 -2.28125 C 47.984375 -3.800781 51.050781 -5.847656 53.625 -8.421875 C 56.195312 -10.992188 58.238281 -14.054688 59.75 -17.609375 C 61.269531 -21.171875 62.03125 -24.898438 62.03125 -28.796875 C 62.03125 -32.691406 61.269531 -36.414062 59.75 -39.96875 C 58.238281 -43.53125 56.195312 -46.597656 53.625 -49.171875 C 51.050781 -51.742188 47.984375 -53.789062 44.421875 -55.3125 C 40.867188 -56.832031 37.144531 -57.59375 33.25 -57.59375 C 29.351562 -57.59375 25.625 -56.832031 22.0625 -55.3125 C 18.507812 -53.789062 15.441406 -51.742188 12.859375 -49.171875 C 10.285156 -46.597656 8.238281 -43.53125 6.71875 -39.96875 Z M 4.4375 -16.640625 C 2.78125 -20.503906 1.953125 -24.554688 1.953125 -28.796875 C 1.953125 -33.035156 2.78125 -37.082031 4.4375 -40.9375 C 6.09375 -44.800781 8.316406 -48.128906 11.109375 -50.921875 C 13.898438 -53.722656 17.222656 -55.953125 21.078125 -57.609375 C 24.941406 -59.265625 28.992188 -60.09375 33.234375 -60.09375 C 37.484375 -60.09375 41.535156 -59.265625 45.390625 -57.609375 C 49.253906 -55.953125 52.582031 -53.722656 55.375 -50.921875 C 58.164062 -48.128906 60.390625 -44.800781 62.046875 -40.9375 C 63.710938 -37.082031 64.546875 -33.035156 64.546875 -28.796875 C 64.546875 -24.554688 63.710938 -20.503906 62.046875 -16.640625 C 60.390625 -12.773438 58.164062 -9.445312 55.375 -6.65625 C 52.582031 -3.863281 49.253906 -1.640625 45.390625 0.015625 C 41.535156 1.671875 37.484375 2.5 33.234375 2.5 C 28.992188 2.5 24.941406 1.671875 21.078125 0.015625 C 17.222656 -1.640625 13.898438 -3.863281 11.109375 -6.65625 C 8.316406 -9.445312 6.09375 -12.773438 4.4375 -16.640625 Z M 4.4375 -16.640625 "/></g></g></g><g fill="#ffffff" fill-opacity="1"><g transform="translate(65.45343, 63.712502)"><g><path d="M 22.15625 -28.65625 L 37.25 -28.65625 C 39.539062 -28.65625 41.476562 -29.394531 43.0625 -30.875 C 44.65625 -32.363281 45.453125 -34.472656 45.453125 -37.203125 C 45.453125 -39.222656 44.613281 -41.035156 42.9375 -42.640625 C 41.269531 -44.253906 39.375 -45.0625 37.25 -45.0625 L 15.75 -45.0625 L 15.75 0 L 13.25 0 L 13.25 -47.578125 L 37.25 -47.578125 C 40.070312 -47.578125 42.5625 -46.523438 44.71875 -44.421875 C 46.875 -42.328125 47.953125 -39.921875 47.953125 -37.203125 C 47.953125 -33.867188 46.90625 -31.191406 44.8125 -29.171875 C 42.726562 -27.160156 40.207031 -26.15625 37.25 -26.15625 L 22.15625 -26.15625 Z M 22.15625 -23.640625 L 37.25 -23.640625 C 40.863281 -23.640625 43.96875 -24.910156 46.5625 -27.453125 C 49.15625 -29.992188 50.453125 -33.242188 50.453125 -37.203125 C 50.453125 -40.617188 49.125 -43.617188 46.46875 -46.203125 C 43.820312 -48.785156 40.75 -50.078125 37.25 -50.078125 L 10.75 -50.078125 L 10.75 0 L 8.234375 0 L 8.234375 -52.578125 L 37.25 -52.578125 C 40 -52.578125 42.585938 -51.867188 45.015625 -50.453125 C 47.441406 -49.046875 49.375 -47.148438 50.8125 -44.765625 C 52.25 -42.390625 52.96875 -39.867188 52.96875 -37.203125 C 52.96875 -32.640625 51.414062 -28.820312 48.3125 -25.75 C 45.21875 -22.675781 41.53125 -21.140625 37.25 -21.140625 L 22.15625 -21.140625 Z M 22.15625 -18.640625 L 37.25 -18.640625 C 40.488281 -18.640625 43.5 -19.4375 46.28125 -21.03125 C 49.0625 -22.632812 51.285156 -24.867188 52.953125 -27.734375 C 54.628906 -30.597656 55.46875 -33.753906 55.46875 -37.203125 C 55.46875 -40.335938 54.640625 -43.273438 52.984375 -46.015625 C 51.328125 -48.765625 49.09375 -50.960938 46.28125 -52.609375 C 43.476562 -54.253906 40.46875 -55.078125 37.25 -55.078125 L 5.734375 -55.078125 L 5.734375 0 L 3.234375 0 L 3.234375 -57.59375 L 37.25 -57.59375 C 40.882812 -57.59375 44.300781 -56.65625 47.5 -54.78125 C 50.695312 -52.914062 53.238281 -50.410156 55.125 -47.265625 C 57.019531 -44.128906 57.96875 -40.773438 57.96875 -37.203125 C 57.96875 -33.078125 57.082031 -29.445312 55.3125 -26.3125 C 53.539062 -23.1875 51.132812 -20.742188 48.09375 -18.984375 L 54.5625 0 L 51.921875 0 L 45.734375 -17.8125 C 44.804688 -17.4375 44.097656 -17.179688 43.609375 -17.046875 L 49.421875 0 L 46.765625 0 L 41.109375 -16.453125 C 40.898438 -16.398438 40.15625 -16.316406 38.875 -16.203125 L 44.265625 0 L 41.625 0 L 36.3125 -16.140625 L 34.046875 -16.140625 L 39.125 0 L 36.484375 0 L 31.359375 -16.140625 L 22.15625 -16.140625 Z M 20.765625 0 L 18.25 0 L 18.25 -42.5625 L 37.25 -42.5625 C 38.800781 -42.5625 40.140625 -42.035156 41.265625 -40.984375 C 42.390625 -39.929688 42.953125 -38.671875 42.953125 -37.203125 C 42.953125 -33.171875 41.050781 -31.15625 37.25 -31.15625 L 22.15625 -31.15625 L 22.15625 -33.65625 L 37.25 -33.65625 C 38.238281 -33.65625 39.015625 -33.914062 39.578125 -34.4375 C 40.148438 -34.96875 40.4375 -35.890625 40.4375 -37.203125 C 40.4375 -38.015625 40.128906 -38.691406 39.515625 -39.234375 C 38.898438 -39.785156 38.144531 -40.0625 37.25 -40.0625 L 20.765625 -40.0625 Z M 20.765625 0 "/></g></g></g><g fill="#ffffff" fill-opacity="1"><g transform="translate(125.542225, 63.712502)"><g><path d="M 18.25 -57.59375 L 20.765625 -57.59375 L 20.765625 0 L 18.25 0 Z M 13.25 -57.59375 L 15.75 -57.59375 L 15.75 0 L 13.25 0 Z M 8.234375 -57.59375 L 10.75 -57.59375 L 10.75 0 L 8.234375 0 Z M 3.234375 -57.59375 L 5.734375 -57.59375 L 5.734375 0 L 3.234375 0 Z M 3.234375 -57.59375 "/></g></g></g><g fill="#ffffff" fill-opacity="1"><g transform="translate(149.675108, 63.712502)"><g><path d="M 49.234375 -30.078125 L 51.75 -30.078125 L 51.75 0 L 49.234375 0 Z M 59.25 -30.078125 L 61.765625 -30.078125 L 61.765625 0 L 59.25 0 Z M 54.25 -30.078125 L 56.75 -30.078125 L 56.75 0 L 54.25 0 Z M 46.734375 -30.078125 L 46.734375 0 C 42.328125 1.664062 37.757812 2.5 33.03125 2.5 C 28.925781 2.5 24.992188 1.742188 21.234375 0.234375 C 17.484375 -1.265625 14.179688 -3.351562 11.328125 -6.03125 C 8.484375 -8.707031 6.207031 -12.019531 4.5 -15.96875 C 2.800781 -19.925781 1.953125 -24.203125 1.953125 -28.796875 C 1.953125 -33.035156 2.78125 -37.082031 4.4375 -40.9375 C 6.09375 -44.800781 8.316406 -48.128906 11.109375 -50.921875 C 13.898438 -53.722656 17.222656 -55.953125 21.078125 -57.609375 C 24.941406 -59.265625 29 -60.09375 33.25 -60.09375 C 38.53125 -60.09375 43.441406 -58.863281 47.984375 -56.40625 C 52.535156 -53.945312 56.242188 -50.609375 59.109375 -46.390625 L 57.03125 -45.03125 C 54.382812 -48.90625 50.96875 -51.96875 46.78125 -54.21875 C 42.601562 -56.46875 38.09375 -57.59375 33.25 -57.59375 C 29.351562 -57.59375 25.625 -56.832031 22.0625 -55.3125 C 18.507812 -53.789062 15.441406 -51.742188 12.859375 -49.171875 C 10.285156 -46.597656 8.238281 -43.53125 6.71875 -39.96875 C 5.207031 -36.414062 4.453125 -32.691406 4.453125 -28.796875 C 4.453125 -24.597656 5.234375 -20.675781 6.796875 -17.03125 C 8.359375 -13.394531 10.441406 -10.347656 13.046875 -7.890625 C 15.660156 -5.429688 18.691406 -3.5 22.140625 -2.09375 C 25.597656 -0.695312 29.195312 0 32.9375 0 C 36.851562 0 40.617188 -0.613281 44.234375 -1.84375 L 44.234375 -4.25 C 40.773438 -3.082031 37.144531 -2.5 33.34375 -2.5 C 30.582031 -2.5 27.898438 -2.882812 25.296875 -3.65625 C 22.691406 -4.4375 20.28125 -5.585938 18.0625 -7.109375 C 15.851562 -8.628906 13.914062 -10.4375 12.25 -12.53125 C 10.59375 -14.632812 9.296875 -17.082031 8.359375 -19.875 C 7.421875 -22.664062 6.953125 -25.640625 6.953125 -28.796875 C 6.953125 -33.546875 8.128906 -37.9375 10.484375 -41.96875 C 12.835938 -46.007812 16.03125 -49.203125 20.0625 -51.546875 C 24.09375 -53.898438 28.488281 -55.078125 33.25 -55.078125 C 37.695312 -55.078125 41.832031 -54.039062 45.65625 -51.96875 C 49.476562 -49.894531 52.597656 -47.082031 55.015625 -43.53125 L 52.921875 -42.1875 C 50.742188 -45.382812 47.921875 -47.914062 44.453125 -49.78125 C 40.992188 -51.644531 37.257812 -52.578125 33.25 -52.578125 C 30.019531 -52.578125 26.929688 -51.953125 23.984375 -50.703125 C 21.046875 -49.453125 18.515625 -47.765625 16.390625 -45.640625 C 14.273438 -43.515625 12.585938 -40.976562 11.328125 -38.03125 C 10.078125 -35.09375 9.453125 -32.015625 9.453125 -28.796875 C 9.453125 -25.898438 9.875 -23.179688 10.71875 -20.640625 C 11.570312 -18.097656 12.742188 -15.878906 14.234375 -13.984375 C 15.734375 -12.097656 17.476562 -10.476562 19.46875 -9.125 C 21.46875 -7.769531 23.644531 -6.742188 26 -6.046875 C 28.351562 -5.347656 30.769531 -5 33.25 -5 C 37.09375 -5 40.753906 -5.648438 44.234375 -6.953125 L 44.234375 -9.453125 C 40.804688 -8.140625 37.222656 -7.484375 33.484375 -7.484375 C 30.660156 -7.484375 27.960938 -7.960938 25.390625 -8.921875 C 22.816406 -9.878906 20.523438 -11.238281 18.515625 -13 C 16.515625 -14.769531 14.921875 -17.019531 13.734375 -19.75 C 12.554688 -22.488281 11.96875 -25.503906 11.96875 -28.796875 C 11.96875 -32.640625 12.914062 -36.195312 14.8125 -39.46875 C 16.71875 -42.738281 19.300781 -45.320312 22.5625 -47.21875 C 25.832031 -49.125 29.394531 -50.078125 33.25 -50.078125 C 36.84375 -50.078125 40.1875 -49.238281 43.28125 -47.5625 C 46.375 -45.894531 48.894531 -43.625 50.84375 -40.75 L 48.75 -39.40625 C 47.039062 -41.90625 44.820312 -43.890625 42.09375 -45.359375 C 39.375 -46.835938 36.425781 -47.578125 33.25 -47.578125 C 29.832031 -47.578125 26.6875 -46.734375 23.8125 -45.046875 C 20.945312 -43.367188 18.671875 -41.09375 16.984375 -38.21875 C 15.304688 -35.34375 14.46875 -32.203125 14.46875 -28.796875 C 14.46875 -26.429688 14.800781 -24.226562 15.46875 -22.1875 C 16.144531 -20.144531 17.070312 -18.378906 18.25 -16.890625 C 19.4375 -15.410156 20.820312 -14.148438 22.40625 -13.109375 C 24 -12.066406 25.707031 -11.285156 27.53125 -10.765625 C 29.363281 -10.242188 31.269531 -9.984375 33.25 -9.984375 C 37.164062 -9.984375 40.828125 -10.757812 44.234375 -12.3125 L 44.234375 -14.703125 C 40.941406 -13.242188 37.382812 -12.515625 33.5625 -12.515625 C 31.351562 -12.515625 29.273438 -12.847656 27.328125 -13.515625 C 25.378906 -14.191406 23.625 -15.179688 22.0625 -16.484375 C 20.5 -17.785156 19.257812 -19.492188 18.34375 -21.609375 C 17.425781 -23.734375 16.96875 -26.128906 16.96875 -28.796875 C 16.96875 -30.992188 17.394531 -33.09375 18.25 -35.09375 C 19.113281 -37.101562 20.273438 -38.835938 21.734375 -40.296875 C 23.191406 -41.765625 24.921875 -42.925781 26.921875 -43.78125 C 28.929688 -44.632812 31.039062 -45.0625 33.25 -45.0625 C 36.007812 -45.0625 38.570312 -44.414062 40.9375 -43.125 C 43.300781 -41.84375 45.222656 -40.101562 46.703125 -37.90625 L 44.65625 -36.546875 C 43.394531 -38.398438 41.757812 -39.863281 39.75 -40.9375 C 37.75 -42.019531 35.582031 -42.5625 33.25 -42.5625 C 29.445312 -42.5625 26.195312 -41.21875 23.5 -38.53125 C 20.8125 -35.84375 19.46875 -32.597656 19.46875 -28.796875 C 19.46875 -26.453125 19.847656 -24.378906 20.609375 -22.578125 C 21.378906 -20.785156 22.429688 -19.347656 23.765625 -18.265625 C 25.097656 -17.191406 26.582031 -16.378906 28.21875 -15.828125 C 29.851562 -15.285156 31.609375 -15.015625 33.484375 -15.015625 C 37.335938 -15.015625 40.921875 -15.816406 44.234375 -17.421875 L 44.234375 -30.078125 Z M 46.734375 -30.078125 "/></g></g></g><g fill="#ffffff" fill-opacity="1"><g transform="translate(214.354007, 63.712502)"><g><path d="M 18.25 -57.59375 L 20.765625 -57.59375 L 20.765625 0 L 18.25 0 Z M 13.25 -57.59375 L 15.75 -57.59375 L 15.75 0 L 13.25 0 Z M 8.234375 -57.59375 L 10.75 -57.59375 L 10.75 0 L 8.234375 0 Z M 3.234375 -57.59375 L 5.734375 -57.59375 L 5.734375 0 L 3.234375 0 Z M 3.234375 -57.59375 "/></g></g></g><g fill="#ffffff" fill-opacity="1"><g transform="translate(238.486903, 63.712502)"><g><path d="M 44.125 -27.71875 L 41.625 -31.859375 L 41.625 -57.59375 L 44.125 -57.59375 Z M 49.140625 -19.515625 L 46.640625 -23.71875 L 46.640625 -57.59375 L 49.140625 -57.59375 Z M 54.140625 -11.203125 L 51.640625 -15.4375 L 51.640625 -57.59375 L 54.140625 -57.59375 Z M 18.25 -29.875 L 20.765625 -25.734375 L 20.765625 0 L 18.25 0 Z M 13.25 -38.078125 L 15.75 -33.875 L 15.75 0 L 13.25 0 Z M 8.234375 -46.390625 L 10.75 -42.140625 L 10.75 0 L 8.234375 0 Z M 9.109375 -57.59375 L 12.03125 -57.59375 L 47.4375 0 L 44.515625 0 Z M 15.015625 -57.59375 L 17.984375 -57.59375 L 53.34375 0 L 50.359375 0 Z M 20.90625 -57.59375 L 23.828125 -57.59375 L 56.640625 -4.0625 L 56.640625 -57.59375 L 59.15625 -57.59375 L 59.15625 0 C 59.15625 0 58.171875 0 56.203125 0 Z M 5.734375 -53.515625 L 5.734375 0 L 3.234375 0 L 3.234375 -57.59375 C 3.234375 -57.59375 4.226562 -57.59375 6.21875 -57.59375 L 41.515625 0 L 38.640625 0 Z M 5.734375 -53.515625 "/></g></g></g></g></g></svg>