<svg width="30" height="30" viewBox="0 0 30 30" fill="none" xmlns="http://www.w3.org/2000/svg">
<path d="M26.1873 18.3965C25.3465 17.5553 24.2059 17.0828 23.0165 17.0828C21.8272 17.0828 20.6866 17.5553 19.8457 18.3965L18.4459 19.7963H18.4462C16.5231 19.1605 14.7753 18.0834 13.3431 16.6512C11.9109 15.2189 10.8338 13.4713 10.1981 11.5479L11.5979 10.1481V10.1484C12.439 9.30744 12.9118 8.16686 12.9118 6.97739C12.9118 5.78791 12.439 4.6474 11.5979 3.80643L8.84255 1.049C8.07089 0.277314 6.9891 -0.100529 5.90464 0.0230474C4.82019 0.146827 3.8513 0.758286 3.27288 1.68403L0.973468 5.36619C-0.0395518 6.98203 -0.27571 8.9665 0.329765 10.7751C1.80589 15.1702 4.28018 19.1639 7.55863 22.4419C10.8371 25.7205 14.83 28.1949 19.2255 29.6711C21.034 30.2756 23.0182 30.039 24.634 29.0261L28.316 26.7266H28.3162C29.2419 26.1484 29.8534 25.1795 29.9769 24.095C30.1007 23.0103 29.7229 21.9287 28.951 21.1567L26.1873 18.3965ZM27.9869 23.8644C27.9331 24.3437 27.6627 24.7718 27.2529 25.0261L23.5699 27.3256C22.4597 28.0212 21.0964 28.1834 19.8539 27.7676C15.7537 26.3914 12.0281 24.084 8.9693 21.0262C5.91087 17.9684 3.60226 14.2434 2.22494 10.1436C1.80846 8.9009 1.97069 7.53679 2.66696 6.42625L4.96636 2.74409C5.22111 2.3338 5.65001 2.0634 6.12994 2.01031C6.19046 2.00336 6.25124 2.00014 6.31201 2.00014C6.73097 2.00014 7.13281 2.16659 7.42873 2.46327L10.1841 5.21968C10.6501 5.68553 10.9121 6.31758 10.9121 6.97668C10.9121 7.63578 10.6502 8.26782 10.1841 8.73394L8.35348 10.5636V10.5633C8.22747 10.6896 8.13743 10.8471 8.09278 11.0198C8.04813 11.1924 8.05061 11.3737 8.09948 11.5452C8.79499 14.0116 10.1117 16.2585 11.9237 18.0707C13.7354 19.8828 15.9817 21.2 18.4483 21.896C18.6197 21.9451 18.801 21.9474 18.9737 21.9027C19.1463 21.8581 19.3038 21.768 19.4301 21.642L21.2596 19.8113C21.7329 19.3594 22.3622 19.1073 23.0166 19.1073C23.6709 19.1073 24.3002 19.3594 24.7737 19.8113L27.5291 22.5668C27.8704 22.9071 28.0376 23.3847 27.983 23.8637L27.9869 23.8644Z" fill="#C6C6C6"/>
</svg>
