<svg width="16" height="21" viewBox="0 0 16 21" fill="none" xmlns="http://www.w3.org/2000/svg">
<path d="M8.00013 9.92203C9.35501 9.92203 10.6542 9.39958 11.6124 8.4691C12.5705 7.53862 13.1087 6.27667 13.1087 4.96114C13.1087 3.64536 12.5705 2.38341 11.6124 1.45293C10.6542 0.522443 9.35501 0 8.00013 0C6.64524 0 5.34579 0.522449 4.38765 1.45293C3.42976 2.38341 2.89154 3.64536 2.89154 4.96114C2.89303 6.27642 3.43176 7.53744 4.38937 8.46737C5.347 9.39761 6.64569 9.92079 8.00006 9.92196L8.00013 9.92203ZM8.00013 1.55664C8.92963 1.55664 9.82139 1.9154 10.4787 2.55375C11.136 3.19208 11.5054 4.05809 11.5054 4.96101C11.5054 5.86368 11.136 6.7297 10.4787 7.36803C9.82139 8.00636 8.92963 8.36514 8.00013 8.36514C7.07037 8.36514 6.17887 8.00638 5.52131 7.36803C4.86401 6.7297 4.49457 5.86368 4.49457 4.96101C4.49556 4.05834 4.86523 3.19306 5.52227 2.55467C6.17957 1.91659 7.07056 1.55756 8.00013 1.55664ZM16 16.9283V20.2214C16 20.6514 15.641 21 15.1985 21C14.7557 21 14.3967 20.6514 14.3967 20.2214V16.9283C14.3957 15.8962 13.9731 14.9068 13.2216 14.1772C12.4703 13.4474 11.4515 13.037 10.3887 13.036H5.6113C4.54879 13.0369 3.52975 13.4474 2.77844 14.1772C2.02689 14.9068 1.6043 15.8962 1.60328 16.9283V20.2214C1.60328 20.6514 1.2443 21 0.801771 21C0.359009 21 0 20.6514 0 20.2214V16.9283C0.00174024 15.4836 0.593665 14.0985 1.64548 13.0771C2.6973 12.0556 4.12359 11.4808 5.61118 11.4791H10.3886C11.8762 11.4808 13.3024 12.0556 14.3543 13.0771C15.4061 14.0985 15.998 15.4837 15.9997 16.9283H16Z" fill="#C6C6C6"/>
</svg>
